PathFileType	4	(X/Y/Z)	RUN4
DataRate	CameraRate	NumFrames	NumMarkers	Units	OrigDataRate	OrigDataStartFrame	OrigNumFrames
100	100	8	42	mm	100	150	128
Frame#	Time	LPSI			RPSI			RTH2			RTH3			LTH1			LTH2			LTH3			RTB1			RTB2			LTB1			LTB2			RCAL			RTOE			RMT5			LCAL			LTOE			LMT5			LACR			RACR			CLAV			C7			RUA1			RUA2			RUA3			RLEL			LUA1			LUA2			LUA3			LLEL			LMEL			RFAsuperior			RFAulna			LFAsuperior			LFAradius			LFAulna			RASI			RTB3			LTB3			RMEL			RFAradius			RTH1			LASI		
		X1	Y1	Z1	X2	Y2	Z2	X3	Y3	Z3	X4	Y4	Z4	X5	Y5	Z5	X6	Y6	Z6	X7	Y7	Z7	X8	Y8	Z8	X9	Y9	Z9	X10	Y10	Z10	X11	Y11	Z11	X12	Y12	Z12	X13	Y13	Z13	X14	Y14	Z14	X15	Y15	Z15	X16	Y16	Z16	X17	Y17	Z17	X18	Y18	Z18	X19	Y19	Z19	X20	Y20	Z20	X21	Y21	Z21	X22	Y22	Z22	X23	Y23	Z23	X24	Y24	Z24	X25	Y25	Z25	X26	Y26	Z26	X27	Y27	Z27	X28	Y28	Z28	X29	Y29	Z29	X30	Y30	Z30	X31	Y31	Z31	X32	Y32	Z32	X33	Y33	Z33	X34	Y34	Z34	X35	Y35	Z35	X36	Y36	Z36	X37	Y37	Z37	X38	Y38	Z38	X39	Y39	Z39	X40	Y40	Z40	X41	Y41	Z41	X42	Y42	Z42	

150	  1.500000	869.193813	1153.217968	-417.248214	852.630339	1151.166480	-303.360854	955.895242	830.391746	-196.267637	1060.161602	714.441403	-202.807847	935.248989	948.107975	-520.684855	795.705478	846.897323	-477.595009	782.452273	702.325126	-465.480251	1174.500800	479.945517	-265.797279	1099.883617	426.842595	-196.598311	676.309320	492.332143	-391.982998	545.177014	480.931814	-455.095732	1059.555393	143.052778	-277.935880	1296.252358	170.554710	-317.869801	1263.374162	125.921981	-224.460212	336.998192	405.362439	-399.298634	377.405046	185.210665	-320.487643	331.258401	188.962929	-422.657218	1005.322364	1588.999975	-489.035937	964.517803	1565.869890	-174.483233	1041.245212	1532.227280	-290.900651	927.093372	1596.354464	-343.885111	822.664025	1522.146017	-151.262200	831.442103	1461.070285	-98.406836	728.780442	1430.792171	-83.409709	669.725064	1387.944133	-68.904811	921.195179	1494.753388	-565.042874	955.151520	1422.475842	-589.734237	887.745845	1359.702332	-631.607451	878.821013	1291.142208	-655.855512	848.744692	1266.494275	-572.744668	737.422671	1305.276963	-46.623752	843.077960	1180.882615	-62.038527	954.029971	1270.902350	-625.465313	1076.864009	1343.198787	-503.961714	1101.909845	1276.418798	-519.470010	1000.796021	1091.138221	-219.962280	1162.773880	291.553695	-279.940824	493.432041	371.888501	-392.117215	682.950662	1353.056132	-152.724146	888.302603	1218.546946	-97.817148	941.145226	983.069176	-164.352116	1020.978586	1094.606102	-500.410755	
151	  1.510000	867.940114	1151.237944	-417.314543	851.635214	1148.634777	-303.719367	950.740333	826.947337	-196.245012	1049.556095	706.586133	-202.320958	939.395868	945.216028	-519.559380	800.832892	842.020567	-479.163409	790.664221	696.718598	-465.183541	1171.574200	475.659729	-267.706073	1100.292370	417.817325	-199.145174	676.983646	491.254151	-391.716356	545.535978	490.036618	-456.440501	1078.927279	132.255649	-280.374231	1311.514313	176.841244	-328.714551	1285.305747	126.917084	-234.691305	329.697908	429.696101	-404.124466	359.080756	208.598839	-322.695684	313.690632	213.634584	-425.574925	1005.119010	1588.260436	-487.588287	965.135061	1564.446784	-173.210897	1041.111576	1531.048976	-289.998823	926.800467	1595.634803	-342.214286	822.973423	1520.722505	-149.744609	831.942315	1459.349860	-97.565894	729.102331	1429.007620	-82.928767	670.399210	1385.259481	-68.805563	921.122677	1494.759129	-564.290731	954.881251	1422.574081	-589.295281	887.683470	1360.117406	-631.869730	878.098053	1291.828224	-656.152112	846.811390	1267.090827	-573.411540	739.227467	1303.563448	-46.539386	846.435129	1180.419027	-61.695865	952.774895	1269.371474	-625.572870	1076.620514	1338.462319	-502.882724	1099.457176	1271.089862	-517.992697	1000.249718	1090.908114	-220.763988	1171.986061	287.161644	-283.049367	485.107377	385.568127	-394.299472	684.105275	1350.419361	-152.594844	891.125670	1218.506375	-97.824954	940.814056	981.544041	-164.736402	1019.725010	1092.448146	-500.610940	
152	  1.520000	866.654215	1147.992403	-417.872977	850.384004	1145.485909	-304.306817	945.487417	822.961272	-195.897239	1040.112615	698.573309	-201.436367	942.620637	941.555477	-518.674484	805.943102	835.835801	-479.947623	798.749827	690.252187	-464.492368	1167.595679	471.139946	-269.352463	1098.414814	409.657411	-202.170273	680.244765	488.684230	-392.423279	548.684441	498.884518	-457.332196	1091.478581	123.897049	-284.152893	1320.428652	180.676149	-337.082522	1298.995244	127.437442	-243.400430	327.882137	454.835223	-406.781652	344.037372	231.308966	-328.213027	297.965192	240.481976	-430.509204	1004.639829	1586.257465	-486.101115	966.035986	1561.793888	-172.061031	1041.001987	1528.516375	-289.475220	926.434102	1593.894405	-340.508565	823.837855	1517.903745	-147.560801	833.080194	1456.016638	-96.334649	730.445783	1425.167056	-81.594697	672.135512	1380.607256	-67.548529	920.476524	1493.791962	-563.399557	954.035179	1421.640094	-588.635998	886.941495	1359.562217	-631.723410	876.674718	1291.673332	-656.238255	844.177471	1266.846561	-573.871694	742.265756	1299.964646	-45.623073	850.958049	1178.129021	-60.964429	950.655333	1266.423741	-625.770008	1076.106633	1330.983511	-501.840154	1096.539724	1263.180296	-517.378474	999.791029	1089.920436	-221.744582	1176.991997	283.225595	-286.341309	480.318629	398.855022	-397.087255	686.063655	1345.884525	-151.406772	894.975634	1216.631775	-97.624320	940.414279	979.065340	-165.590563	1018.439218	1089.024670	-501.303229	
153	  1.530000	865.427879	1143.666353	-418.555036	848.927118	1141.768357	-304.922662	940.663636	818.359569	-194.790672	1032.877669	690.792273	-200.318115	944.456751	937.466836	-518.167477	810.802160	828.473297	-480.155741	806.780926	682.981056	-464.199450	1162.916867	466.045080	-270.700806	1094.563700	401.935345	-205.412591	686.066299	484.861090	-394.082315	554.860177	507.162779	-457.846143	1096.867434	116.596265	-289.714657	1323.619765	181.470965	-342.364326	1304.501293	125.621016	-249.989601	331.258869	479.967183	-406.832159	332.724812	253.120327	-337.041021	286.025698	269.384059	-437.837498	1003.847484	1583.107806	-484.663260	967.102658	1557.851661	-171.081609	1041.006863	1524.703044	-289.219020	926.005237	1591.040423	-338.924412	825.147101	1513.625889	-144.824184	834.788856	1451.067418	-94.710467	732.744812	1419.223899	-79.323346	674.899765	1373.930556	-65.113834	919.092332	1491.860156	-562.319874	952.508637	1419.656742	-587.834983	885.376144	1358.095672	-631.261661	874.477472	1290.623386	-656.138338	840.701857	1265.677881	-574.147227	746.473809	1294.458643	-43.837239	856.590274	1174.043150	-59.849444	947.612477	1262.225315	-626.116165	1074.994261	1321.113790	-500.846608	1093.081420	1253.057267	-517.785655	999.121255	1087.825908	-222.645581	1177.768634	278.894812	-289.965278	479.265583	411.620064	-400.063647	688.756019	1339.442785	-149.144478	899.801507	1212.986650	-97.124260	939.454732	974.947245	-166.965716	1017.212952	1084.520693	-502.119137	
154	  1.540000	864.089799	1138.474970	-418.770497	847.347017	1137.325216	-305.255902	936.507415	812.961651	-193.409420	1027.737087	683.360645	-199.790175	944.954855	933.016170	-517.986416	815.379435	820.037584	-480.035478	815.155618	674.862215	-464.924841	1157.543606	459.858693	-272.029394	1089.055109	394.212912	-208.476316	694.171835	480.141337	-396.634747	564.012869	514.516534	-458.123995	1095.291166	108.989832	-296.078375	1321.572848	179.231570	-344.771437	1302.577899	120.357059	-254.433912	339.261226	503.894828	-404.358517	325.804037	273.823553	-348.364084	279.625700	299.373999	-447.121596	1002.662551	1578.961218	-483.456698	968.266516	1552.642574	-170.189736	1041.157385	1519.808699	-289.018524	925.498362	1587.026021	-337.556004	826.736756	1507.838243	-141.587634	837.102977	1444.518289	-92.695756	735.922572	1411.209386	-76.113061	678.653426	1365.257678	-61.573529	916.888480	1488.916267	-561.067068	950.265123	1416.537605	-587.049284	882.948815	1355.680369	-630.712770	871.438155	1288.556105	-655.780482	836.319693	1263.462432	-574.158865	751.741310	1287.056732	-41.220704	863.261145	1168.207078	-58.335938	943.598157	1256.860865	-626.608483	1073.081379	1309.123641	-500.000673	1088.934271	1240.995667	-519.184176	998.003464	1084.299017	-223.200651	1174.360185	273.181649	-293.484197	481.942180	423.625790	-402.993635	692.129024	1331.136781	-145.833144	905.531557	1207.627863	-96.244102	937.532884	969.353178	-168.079720	1015.874928	1079.151397	-502.468445	
155	  1.550000	862.419481	1132.599853	-418.352573	845.755778	1131.817380	-305.148518	932.804718	806.527257	-192.937132	1023.703413	676.068565	-200.639895	944.634576	928.109070	-518.036664	819.758460	810.751108	-479.568864	824.205576	665.993024	-466.716188	1151.160265	451.959670	-273.409129	1081.797345	386.026536	-210.972419	704.237119	474.822544	-400.133386	575.958074	520.767580	-458.456619	1087.139343	101.039471	-301.719655	1314.545014	172.767828	-344.929595	1293.685491	110.759945	-256.893260	351.111799	525.441878	-399.945066	323.974210	293.109987	-360.967510	279.599226	328.873247	-457.310199	1001.004052	1573.831156	-482.582856	969.513949	1546.256809	-169.258832	1041.346732	1513.989654	-288.786315	924.888544	1581.882039	-336.374026	828.480573	1500.495367	-137.839043	840.110455	1436.373578	-90.275544	739.943219	1401.241091	-72.049028	683.375695	1354.728202	-57.021769	913.923457	1484.869818	-559.713897	947.278834	1412.225965	-586.404323	879.663624	1352.213021	-630.215257	867.503853	1285.372050	-655.157370	831.157273	1260.169567	-573.898404	757.944720	1277.799004	-37.855292	870.901517	1160.662426	-56.454545	938.557645	1250.362991	-627.201710	1070.240192	1295.175453	-499.423700	1083.906092	1227.175773	-521.419002	996.465712	1079.224223	-223.350361	1166.998425	265.274629	-296.129683	488.166617	434.545159	-405.947265	696.159303	1321.060986	-141.495956	912.092253	1200.598221	-95.009459	934.591496	962.785136	-168.172350	1014.204707	1073.098353	-502.184389	
156	  1.560000	860.351924	1126.103126	-417.630596	844.223486	1124.948438	-304.681594	929.092185	798.943479	-194.320965	1019.698012	668.474355	-202.866297	944.139718	922.636320	-518.290860	824.048738	800.861772	-478.668886	834.027425	656.539246	-469.295439	1143.469874	441.872873	-274.488382	1072.292712	376.917792	-212.879586	716.029243	469.033361	-404.713664	590.489675	525.952492	-459.143623	1072.525714	 94.326554	-306.165372	1302.512785	159.596219	-343.714540	1277.442981	 96.340367	-257.343152	365.807764	543.853856	-394.465719	327.742362	310.610561	-373.751441	285.867837	356.207550	-467.288328	998.838696	1567.591079	-481.962195	970.874819	1538.789769	-168.237466	1041.406403	1507.279760	-288.595986	924.157060	1575.657839	-335.241620	830.402101	1491.564036	-133.588189	843.851496	1426.651804	-87.393949	744.813502	1389.528668	-67.248995	689.084988	1342.527673	-51.547223	910.337438	1479.634433	-558.322961	943.522567	1406.739365	-585.901954	875.536480	1347.589288	-629.675292	862.642365	1281.052961	-654.364922	825.479309	1255.878460	-573.476658	765.036055	1266.752336	-33.819082	879.454834	1151.442399	-54.294255	932.452349	1242.743438	-627.862286	1066.405032	1279.339373	-499.277296	1077.814405	1211.715748	-524.346526	994.798600	1072.718053	-223.300042	1155.980972	254.877835	-297.742612	497.620409	444.068792	-409.131236	700.865933	1309.338969	-136.169834	919.439729	1191.940378	-93.537671	931.091044	955.413755	-167.462062	1012.137315	1066.423655	-501.596304	
157	  1.570000	857.923644	1118.925338	-416.962016	842.658269	1116.800820	-304.027848	924.989290	790.484001	-197.352250	1015.283365	660.249613	-205.584345	943.793279	916.539789	-518.734942	828.417371	790.427981	-477.532434	844.556918	646.546456	-472.482148	1134.712000	429.852296	-275.048153	1060.421922	366.978023	-214.755717	729.434444	462.778127	-410.384394	607.364355	530.055468	-460.269827	1051.245705	 90.625266	-310.370928	1284.985163	138.861860	-342.349199	1253.361251	 78.666964	-255.964796	382.431921	558.919585	-388.841156	337.136636	325.973683	-385.919981	297.835960	380.068703	-476.335523	996.184586	1560.155156	-481.429565	972.405887	1530.293912	-167.149344	1041.293434	1499.649018	-288.532292	923.266332	1568.312802	-334.011503	832.686436	1481.069411	-128.954075	848.293158	1415.476112	-84.014691	750.554699	1376.337189	-61.802414	695.854221	1328.807297	-45.249507	906.228831	1473.181463	-556.864346	939.011260	1400.123507	-585.435769	870.609290	1341.780473	-628.902918	856.845316	1275.678907	-653.520348	819.476535	1250.695093	-573.018133	773.113350	1254.040838	-29.187106	888.886614	1140.575610	-51.976388	925.295710	1234.029315	-628.614299	1061.578763	1261.656596	-499.783036	1070.513008	1194.711512	-527.932158	993.294101	1064.993423	-223.387883	1141.442927	242.595029	-299.369562	509.938805	451.959906	-412.624572	706.326567	1296.086611	-129.950781	927.573052	1181.694945	-91.946573	927.712741	947.076646	-167.026226	1009.709182	1059.067884	-501.061612	
